<?xml version="1.0" standalone="no"?>
<!DOCTYPE svg PUBLIC "-//W3C//DTD SVG 20010904//EN" "http://www.w3.org/TR/2001/REC-SVG-20010904/DTD/svg10.dtd">
<svg version="1.0" xmlns="http://www.w3.org/2000/svg"
    width="512.000000pt" height="512.000000pt" viewBox="0 0 512.000000 512.000000"
    preserveAspectRatio="xMidYMid meet">

    <g transform="translate(0.000000,512.000000) scale(0.100000,-0.100000)"
        fill="#797C9A" stroke="none">
        <path d="M1766 4918 c-22 -20 -29 -44 -57 -208 -17 -102 -33 -188 -36 -192 -2
-5 -330 -8 -728 -8 l-724 0 -21 -27 c-21 -26 -21 -36 -18 -223 3 -178 5 -199
25 -236 27 -51 80 -98 127 -114 l36 -12 0 -1358 c0 -995 3 -1366 11 -1384 7
-14 25 -30 42 -36 20 -7 363 -10 1048 -10 l1019 0 0 -220 0 -219 -32 -17
c-156 -78 -191 -278 -72 -398 97 -96 251 -96 348 0 48 49 70 102 70 174 0 97
-52 179 -141 224 l-33 17 0 219 0 220 1019 0 c685 0 1028 3 1048 10 17 6 35
22 42 36 8 18 11 389 11 1384 l0 1358 36 12 c47 16 100 63 127 114 20 37 22
58 25 236 3 187 3 197 -18 223 l-21 27 -724 0 c-398 0 -726 3 -728 8 -3 4 -19
90 -37 192 -28 163 -34 188 -56 208 l-25 22 -769 0 -769 0 -25 -22z m1511
-253 c12 -71 22 -136 22 -142 1 -10 -153 -13 -739 -13 -407 0 -740 3 -740 6 0
12 41 259 45 272 4 10 148 12 697 10 l692 -3 23 -130z m1523 -430 l0 -135 -29
-32 -29 -33 -2182 0 -2182 0 -29 33 -29 32 0 135 0 135 2240 0 2240 0 0 -135z
m-192 -1662 l-3 -1318 -2045 0 -2045 0 -3 1318 -2 1317 2050 0 2050 0 -2
-1317z m-2003 -2049 c102 -48 68 -199 -45 -199 -50 0 -87 27 -101 74 -15 49 8
102 54 125 40 20 51 20 92 0z" />
        <path d="M885 3525 c-30 -29 -32 -68 -5 -95 19 -19 33 -20 530 -20 497 0 511
1 530 20 29 29 26 74 -6 99 -26 21 -36 21 -526 21 l-499 0 -24 -25z" />
        <path d="M3162 3540 c-633 -89 -1010 -735 -775 -1329 209 -530 844 -763 1350
-496 138 73 269 188 353 310 52 75 118 225 142 321 31 126 32 332 0 458 -87
349 -359 623 -705 711 -110 28 -268 39 -365 25z m58 -538 l0 -397 -284 -284
-283 -283 -32 39 c-47 55 -118 206 -142 298 -29 111 -29 289 0 400 44 169 153
340 286 448 107 87 318 175 423 176 l32 1 0 -398z m271 378 c272 -71 490 -271
580 -533 28 -82 50 -192 41 -202 -3 -3 -173 -5 -379 -5 l-373 0 0 380 0 380
28 0 c16 0 62 -9 103 -20z m618 -932 c-29 -183 -114 -343 -251 -474 -123 -118
-264 -189 -433 -219 -110 -19 -170 -19 -280 0 -113 20 -218 62 -317 128 l-79
51 283 283 283 283 401 0 401 0 -8 -52z" />
        <path d="M882 3037 c-28 -30 -28 -68 1 -95 23 -22 24 -22 530 -22 494 0 508 1
527 20 11 11 20 33 20 50 0 17 -9 39 -20 50 -19 19 -33 20 -528 20 l-509 0
-21 -23z" />
        <path d="M880 2550 c-27 -27 -25 -66 5 -95 l24 -25 499 0 c490 0 500 0 526 21
32 25 35 70 6 99 -19 19 -33 20 -530 20 -497 0 -511 -1 -530 -20z" />
        <path d="M903 2080 c-44 -18 -56 -77 -23 -110 19 -19 33 -20 533 -20 485 0
515 1 530 18 24 26 21 75 -4 98 -20 18 -45 19 -518 21 -274 1 -506 -2 -518 -7z" />
    </g>
</svg>